<?xml version="1.0" encoding="UTF-8" standalone="no"?>
<svg
   xmlns:dc="http://purl.org/dc/elements/1.1/"
   xmlns:cc="http://creativecommons.org/ns#"
   xmlns:rdf="http://www.w3.org/1999/02/22-rdf-syntax-ns#"
   xmlns:svg="http://www.w3.org/2000/svg"
   xmlns="http://www.w3.org/2000/svg"
   xmlns:sodipodi="http://sodipodi.sourceforge.net/DTD/sodipodi-0.dtd"
   xmlns:inkscape="http://www.inkscape.org/namespaces/inkscape"
   width="289.01678mm"
   height="162.70316mm"
   version="1.2"
   id="svg2"
   inkscape:version="0.91 r13725"
   sodipodi:docname="MoviesHD1.svg">
  <metadata
     id="metadata104">
    <rdf:RDF>
      <cc:Work
         rdf:about="">
        <dc:format>image/svg+xml</dc:format>
        <dc:type
           rdf:resource="http://purl.org/dc/dcmitype/StillImage" />
        <dc:title></dc:title>
      </cc:Work>
    </rdf:RDF>
  </metadata>
  <sodipodi:namedview
     pagecolor="#ffffff"
     bordercolor="#666666"
     borderopacity="1"
     objecttolerance="10"
     gridtolerance="10"
     guidetolerance="10"
     inkscape:pageopacity="0"
     inkscape:pageshadow="2"
     inkscape:window-width="1680"
     inkscape:window-height="987"
     id="namedview102"
     showgrid="false"
     inkscape:zoom="0.31466616"
     inkscape:cx="479.99943"
     inkscape:cy="313.26166"
     inkscape:window-x="-8"
     inkscape:window-y="-8"
     inkscape:window-maximized="1"
     inkscape:current-layer="svg2"
     fit-margin-top="0"
     fit-margin-left="0"
     fit-margin-right="0"
     fit-margin-bottom="0" />
  <desc
     id="desc4">Created by EvoPdf</desc>
  <defs
     id="defs6" />
  <g
     id="g8"
     style="fill:none;fill-rule:evenodd;stroke:#000000;stroke-width:1;stroke-linecap:square;stroke-linejoin:bevel"
     transform="translate(0,-111.755)">
    <g
       stroke-miterlimit="2"
       id="g10"
       style="fill:#000000;fill-opacity:1;stroke:#000000;stroke-width:1;stroke-linecap:square;stroke-linejoin:miter;stroke-miterlimit:2;stroke-opacity:1" />
    <g
       stroke-miterlimit="2"
       id="g12"
       style="fill:#000000;fill-opacity:1;stroke:#000000;stroke-width:1;stroke-linecap:square;stroke-linejoin:miter;stroke-miterlimit:2;stroke-opacity:1" />
    <g
       stroke-miterlimit="2"
       id="g14"
       style="fill:#000000;fill-opacity:1;stroke:#000000;stroke-width:1;stroke-linecap:square;stroke-linejoin:miter;stroke-miterlimit:2;stroke-opacity:1" />
    <g
       stroke-miterlimit="2"
       id="g16"
       style="fill:#000000;fill-opacity:1;stroke:#000000;stroke-width:1;stroke-linecap:square;stroke-linejoin:miter;stroke-miterlimit:2;stroke-opacity:1" />
    <g
       stroke-miterlimit="2"
       transform="matrix(7.55162,0,0,7.55162,0,111.755)"
       id="g18"
       style="fill:#000000;fill-opacity:1;stroke:#000000;stroke-width:1;stroke-linecap:square;stroke-linejoin:miter;stroke-miterlimit:2;stroke-opacity:1" />
    <g
       transform="matrix(7.55162,0,0,7.55162,0,111.755)"
       id="g20"
       style="fill:#ffffff;fill-opacity:1;stroke:none">
      <path
         vector-effect="none"
         d="m 0,0 0,76.34 67.24,0 c 5.7967,0.0838 11.3701,-2.2324 15.4,-6.4 3.5693,-3.7144 5.5896,-8.649 5.65,-13.8 L 88.29,0 0,0"
         id="path22"
         inkscape:connector-curvature="0"
         style="fill-rule:nonzero" />
    </g>
    <g
       stroke-miterlimit="2"
       transform="matrix(7.55162,0,0,7.55162,0,111.755)"
       id="g24"
       style="fill:#000000;fill-opacity:1;stroke:#000000;stroke-width:1;stroke-linecap:square;stroke-linejoin:miter;stroke-miterlimit:2;stroke-opacity:1" />
    <g
       transform="matrix(7.55162,0,0,7.55162,0,111.755)"
       id="g26"
       style="fill:#c90000;fill-opacity:1;stroke:none">
      <path
         vector-effect="none"
         d="m 0.82,37.79 0,37.72 65.8,0 c 5.4216,0.1287 10.6706,-1.9099 14.5843,-5.664 3.9136,-3.7541 6.1687,-8.9138 6.2657,-14.336 l 0,-17.72 -86.65,0"
         id="path28"
         inkscape:connector-curvature="0"
         style="fill-rule:nonzero" />
    </g>
    <g
       stroke-miterlimit="2"
       transform="matrix(7.55162,0,0,7.55162,0,111.755)"
       id="g30"
       style="fill:#000000;fill-opacity:1;stroke:#000000;stroke-width:1;stroke-linecap:square;stroke-linejoin:miter;stroke-miterlimit:2;stroke-opacity:1" />
    <g
       transform="matrix(7.55162,0,0,7.55162,0,111.755)"
       id="g32"
       style="fill:#c90000;fill-opacity:1;stroke:none">
      <path
         vector-effect="none"
         d="m 0,0 0,76.34 67.24,0 c 5.7967,0.0838 11.3701,-2.2324 15.4,-6.4 3.5693,-3.7144 5.5896,-8.649 5.65,-13.8 L 88.29,0 0,0 M 66.56,75.34 1,75.34 1,1 l 86.28,0 0,54.46 c -0.0662,5.0538 -2.0501,9.8937 -5.55,13.54 -3.9625,4.12 -9.4542,6.4152 -15.17,6.34"
         id="path34"
         inkscape:connector-curvature="0"
         style="fill-rule:nonzero" />
    </g>
    <g
       stroke-miterlimit="2"
       transform="matrix(7.55162,0,0,7.55162,0,111.755)"
       id="g36"
       style="fill:#000000;fill-opacity:1;stroke:#000000;stroke-width:1;stroke-linecap:square;stroke-linejoin:miter;stroke-miterlimit:2;stroke-opacity:1" />
    <g
       transform="matrix(7.55162,0,0,7.55162,0,111.755)"
       id="g38"
       style="fill:#ffffff;fill-opacity:1;stroke:none">
      <path
         vector-effect="none"
         d="m 79,58.9 c 0,2.07 -1.36,4.49 -5.19,4.49 -1.388,0.0347 -2.7306,-0.4959 -3.72,-1.47 -0.8403,-0.8649 -1.2917,-2.0349 -1.25,-3.24 0.049,-0.4685 0.444,-0.8242 0.915,-0.8242 0.471,0 0.866,0.3557 0.915,0.8242 -0.0301,0.7351 0.2283,1.4528 0.72,2 0.6523,0.6261 1.5378,0.949 2.44,0.89 0.9631,0.0782 1.9164,-0.2396 2.64,-0.88 0.4421,-0.4815 0.6789,-1.1166 0.66,-1.77 0.009,-0.4671 -0.1714,-0.9179 -0.5,-1.25 -0.7917,-0.6511 -1.8099,-0.9605 -2.83,-0.86 -3.94,0 -5,-2.3 -5,-3.66 0,-0.47 0.14,-4.56 5,-4.56 0.2,0 4.94,0.06 4.94,4.86 0,0.4998 -0.4052,0.905 -0.905,0.905 -0.4998,0 -0.905,-0.4052 -0.905,-0.905 0.0418,-0.7912 -0.2152,-1.5693 -0.72,-2.18 -0.6376,-0.6226 -1.511,-0.9429 -2.4,-0.88 -0.92,-0.0714 -1.8275,0.248 -2.5,0.88 -0.4558,0.5263 -0.6983,1.204 -0.68,1.9 0.017,0.3806 0.1821,0.7394 0.46,1 0.7655,0.6159 1.7422,0.9068 2.72,0.81 C 77,55 79,56.5 79,58.9 m -16.09,-8.17 3.59,0 c 0.5297,0.001 0.9682,-0.4113 1,-0.94 3e-4,-0.4598 -0.3354,-0.8508 -0.79,-0.92 l -3.36,0 C 61.9286,48.6307 60.4791,49.0931 59.4589,50.1113 58.4387,51.1296 57.9735,52.5781 58.21,54 l 0,4 c -0.2317,1.4197 0.2309,2.8645 1.2441,3.8857 1.0133,1.0211 2.4544,1.4949 3.8759,1.2743 l 3.31,0 c 0.4738,-0.0493 0.8337,-0.4487 0.8337,-0.925 0,-0.4763 -0.3599,-0.8757 -0.8337,-0.925 l -3.34,0 C 62.4226,61.3474 61.5713,61.0061 60.9629,60.3728 60.3545,59.7394 60.0474,58.8752 60.12,58 l 0,-1 5,0 c 0.5191,0 0.94,-0.4209 0.94,-0.94 0,-0.5191 -0.4209,-0.94 -0.94,-0.94 l -5,0 0,-1.12 c -0.0746,-0.806 0.1797,-1.6079 0.705,-2.2237 0.5254,-0.6158 1.2773,-0.9931 2.085,-1.0463 l 0,0 M 42,56 c 0,4.0924 -3.3176,7.41 -7.41,7.41 -4.0924,0 -7.41,-3.3176 -7.41,-7.41 0,-4.0924 3.3176,-7.41 7.41,-7.41 4.0924,0 7.41,3.3176 7.41,7.41 m -1.8,0 c 0,-3.0983 -2.5117,-5.61 -5.61,-5.61 -3.0983,0 -5.61,2.5117 -5.61,5.61 0,3.0983 2.5117,5.61 5.61,5.61 1.494,0.008 2.9296,-0.5792 3.9898,-1.6319 C 39.64,58.9255 40.2374,57.494 40.24,56 l -0.04,0 m 14.88,-7.13 c -0.5287,0.0318 -0.941,0.4703 -0.94,1 l 0,12.28 c 0,0.5136 0.4164,0.93 0.93,0.93 0.5136,0 0.93,-0.4164 0.93,-0.93 l 0,-12.34 c -0.0155,-0.49 -0.3839,-0.8965 -0.87,-0.96 l -0.05,0.02 m -31,0.34 c -0.4544,-0.2117 -0.9487,-0.3242 -1.45,-0.33 -1.1111,-0.0181 -2.1145,0.6616 -2.51,1.7 -0.39,0.9 -2.3,5.44 -2.4,5.68 -0.17,0.43 -0.26,0.5 -0.52,0.51 -0.26,0.01 -0.35,-0.08 -0.52,-0.51 -0.1,-0.25 -2,-4.79 -2.4,-5.68 -0.3968,-1.0419 -1.4053,-1.7223 -2.52,-1.7 -0.5013,0.0055 -0.9957,0.118 -1.45,0.33 -0.96152,0.4874 -1.5876,1.4533 -1.64,2.53 l 0,10.41 c -5e-4,0.514 0.41602,0.9309 0.93,0.9309 0.514,0 0.9305,-0.4169 0.93,-0.9309 l 0,-9.33 0,-0.82 c -0.0162,-0.4687 0.264,-0.897 0.7,-1.07 0.5162,-0.181 1.082,0.0863 1.27,0.6 0.31,0.78 1.36,3.27 1.92,4.74 l 0.17,0.44 c 0.2715,1.1952 1.3664,2.0195 2.59,1.95 1.2224,0.0653 2.3149,-0.7572 2.59,-1.95 l 0.17,-0.44 c 0.55,-1.46 1.61,-4 1.92,-4.74 0.188,-0.5137 0.7538,-0.781 1.27,-0.6 0.436,0.173 0.7162,0.6013 0.7,1.07 l 0,0.83 0,9.32 c 0,0.5136 0.4164,0.93 0.93,0.93 0.5136,0 0.93,-0.4164 0.93,-0.93 l 0,-10.42 c -0.0246,-1.0551 -0.6018,-2.0196 -1.52,-2.54 l -0.09,0.02 m 27.89,0.54 c 0.1866,-0.3865 0.1058,-0.8489 -0.2008,-1.1492 -0.3066,-0.3003 -0.7706,-0.3715 -1.1531,-0.1769 -0.3825,0.1945 -0.5982,0.6115 -0.5361,1.0361 l -1.61,11 c -0.0717,0.3437 -0.3185,0.6245 -0.65,0.74 -0.1109,0.0304 -0.2251,0.0472 -0.34,0.05 -0.1149,-0.0032 -0.229,-0.02 -0.34,-0.05 -0.3315,-0.1155 -0.5783,-0.3963 -0.65,-0.74 L 45,49.45 c 0.0621,-0.4246 -0.1536,-0.8416 -0.5361,-1.0361 -0.3825,-0.1946 -0.8465,-0.1234 -1.1531,0.1769 -0.3066,0.3003 -0.3874,0.7627 -0.2008,1.1492 l 0.17,1.26 1.41,9.7 c 0.1887,1.1329 1.0412,2.0406 2.16,2.3 0.2105,0.0433 0.4251,0.0635 0.64,0.06 l 0.16,0 c 0.2182,0.0037 0.4362,-0.0164 0.65,-0.06 1.1382,-0.2652 1.9964,-1.2028 2.16,-2.36 l 1.41,-9.64 0.1,-1.25"
         id="path40"
         inkscape:connector-curvature="0"
         style="fill-rule:nonzero" />
    </g>
    <g
       stroke-miterlimit="2"
       transform="matrix(7.55162,0,0,7.55162,0,111.755)"
       id="g42"
       style="fill:#000000;fill-opacity:1;stroke:#000000;stroke-width:1;stroke-linecap:square;stroke-linejoin:miter;stroke-miterlimit:2;stroke-opacity:1" />
    <g
       transform="matrix(7.55162,0,0,7.55162,0,111.755)"
       id="g44"
       style="fill:#c90000;fill-opacity:1;stroke:none">
      <path
         vector-effect="none"
         d="m 17.34,12.59 c -3.0218,-0.0103 -5.8701,1.4102 -7.68,3.83 l 0,-9.33 c 0,-0.49706 -0.40294,-0.9 -0.9,-0.9 -0.49706,0 -0.9,0.40294 -0.9,0.9 l 0,15.28 c 0.07679,5.1633 4.3165,9.2912 9.48,9.23 5.2453,-0.0922 9.4582,-4.354 9.49,-9.6 -0.0385,-5.2122 -4.2777,-9.4156 -9.49,-9.41 l 0,0 m 0,17.11 c -3.1057,0.0283 -5.9219,-1.8191 -7.1329,-4.6791 -1.21098,-2.86 -0.57763,-6.1681 1.6041,-8.3785 2.1818,-2.2105 5.4812,-2.887 8.3568,-1.7135 2.8757,1.1735 4.7597,3.9653 4.772,7.0711 0.0221,4.2305 -3.3895,7.678 -7.62,7.7 l 0.02,0 m 29.63,-7.61 c 0.0101,0.255 -0.0911,0.5019 -0.2772,0.6765 C 46.5066,22.9411 46.2539,23.0263 46,23 l -9.89,0 c -0.4791,-0.0496 -0.8432,-0.4533 -0.8432,-0.935 0,-0.4817 0.3641,-0.8854 0.8432,-0.935 l 8.89,0 c -0.5068,-3.6917 -3.6028,-6.4792 -7.3272,-6.5971 -3.7244,-0.118 -6.9906,2.4681 -7.7299,6.1203 -0.7393,3.6522 1.2639,7.305 4.741,8.6449 3.477,1.3398 7.4135,-0.0242 9.3161,-3.2281 0.1372,-0.2094 0.3539,-0.3539 0.6,-0.4 0.2427,-0.0506 0.4955,-1e-4 0.7,0.14 0.4256,0.2806 0.546,0.8514 0.27,1.28 -2.4945,4.0367 -7.583,5.6169 -11.9253,3.7031 -4.3423,-1.9137 -6.6093,-6.7356 -5.3129,-11.3004 1.2964,-4.5648 5.7594,-7.4753 10.4594,-6.8211 4.7,0.6543 8.1984,4.6731 8.1988,9.4184 l -0.02,0 m 5.31,8 c -0.1476,0.8883 -0.9195,1.5373 -1.82,1.53 -0.9035,0.0158 -1.6803,-0.6372 -1.82,-1.53 l 0,-15.92 c 0.1352,-0.8968 0.9132,-1.5551 1.82,-1.54 l 0,0 c 0.9005,-0.0073 1.6724,0.6417 1.82,1.53 l 0,15.93 m 24.14,1 c -0.7857,0.3294 -1.6281,0.5027 -2.48,0.51 -1.8713,-0.0188 -3.6227,-0.9241 -4.72,-2.44 -0.68,-1 -7.06,-11.11 -7.33,-11.56 -0.3797,-0.8151 -1.1817,-1.351 -2.08,-1.39 -0.6053,-0.0202 -1.1916,0.2135 -1.617,0.6446 -0.4254,0.4311 -0.6513,1.0204 -0.623,1.6254 l 0,11.45 c -0.0485,0.9469 -0.8422,1.6829 -1.79,1.66 l 0,0 c -0.8907,0.0438 -1.6749,-0.5818 -1.83,-1.46 l 0,-12 c 0.1178,-2.5677 1.8952,-4.7589 4.3834,-5.4039 2.4881,-0.645 5.1062,0.4068 6.4566,2.5939 l 7.3,11.51 c 0.6457,1.0386 1.9959,1.3828 3.06,0.78 0.6831,-0.3484 1.1289,-1.0343 1.17,-1.8 l 0,-11.68 c 0.1381,-0.887 0.9023,-1.5408 1.8,-1.54 0.8943,-0.0109 1.6609,0.6365 1.8,1.52 l 0,11.73 c 0.0207,2.3088 -1.3826,4.3918 -3.53,5.24 l 0.03,0.01"
         id="path46"
         inkscape:connector-curvature="0"
         style="fill-rule:nonzero" />
    </g>
    <g
       stroke-miterlimit="2"
       transform="matrix(7.55162,0,0,7.55162,0,111.755)"
       id="g48"
       style="fill:#000000;fill-opacity:1;stroke:#000000;stroke-width:1;stroke-linecap:square;stroke-linejoin:miter;stroke-miterlimit:2;stroke-opacity:1" />
    <g
       transform="matrix(7.55162,0,0,7.55162,0,111.755)"
       id="g50"
       style="fill:#c90000;fill-opacity:1;stroke:none">
      <path
         vector-effect="none"
         d="m 90,37.78 36,0 c 2.499,0.059 4.918,-0.881 6.722,-2.6116 1.804,-1.7306 2.843,-4.109 2.888,-6.6084 l 0,-27.15 -36,0 C 97.1117,1.35373 94.6938,2.29455 92.8906,4.0246 91.0873,5.75465 90.0472,8.13151 90,10.63 l 0,27.15"
         id="path52"
         inkscape:connector-curvature="0"
         style="fill-rule:nonzero" />
    </g>
    <g
       stroke-miterlimit="2"
       transform="matrix(7.55162,0,0,7.55162,0,111.755)"
       id="g54"
       style="fill:#000000;fill-opacity:1;stroke:#000000;stroke-width:1;stroke-linecap:square;stroke-linejoin:miter;stroke-miterlimit:2;stroke-opacity:1" />
    <g
       transform="matrix(7.55162,0,0,7.55162,0,111.755)"
       id="g56"
       style="fill:#ffffff;fill-opacity:1;stroke:none">
      <path
         vector-effect="none"
         d="m 126.73,14.64 c 0,-1.41 -0.72,-2.29 -1.87,-2.29 l -2.77,0 -1,2.63 3.14,0 0,11.63 2.5,0 0,-11.97"
         id="path58"
         inkscape:connector-curvature="0"
         style="fill-rule:nonzero" />
    </g>
    <g
       stroke-miterlimit="2"
       transform="matrix(7.55162,0,0,7.55162,0,111.755)"
       id="g60"
       style="fill:#000000;fill-opacity:1;stroke:#000000;stroke-width:1;stroke-linecap:square;stroke-linejoin:miter;stroke-miterlimit:2;stroke-opacity:1" />
    <g
       transform="matrix(7.55162,0,0,7.55162,0,111.755)"
       id="g62"
       style="fill:#ffffff;fill-opacity:1;stroke:none">
      <path
         vector-effect="none"
         d="m 95.76,26 -2.46,0 0,-12.82 2.46,0 0,12.82 m 7,-12.83 -2.44,0 0,5.14 -3.6,0 0,2.27 3.6,0 0,5.42 2.44,0 0,-12.83 M 109.24,26 c 3.51,0 5.79,-2.5 5.79,-6.42 0,-3.92 -2.22,-6.42 -5.79,-6.42 l -4.57,0 0,12.84 2.44,0 0,-10.55 2.13,0 c 2.75,0 3.34,2.24 3.34,4.12 0,1.55 -0.44,4.16 -3.34,4.16 l -1.15,0 0,2.27 1.15,0"
         id="path64"
         inkscape:connector-curvature="0"
         style="fill-rule:nonzero" />
    </g>
    <g
       stroke-miterlimit="2"
       transform="matrix(7.55162,0,0,7.55162,0,111.755)"
       id="g66"
       style="fill:#000000;fill-opacity:1;stroke:#000000;stroke-width:1;stroke-linecap:square;stroke-linejoin:miter;stroke-miterlimit:2;stroke-opacity:1" />
    <g
       stroke-miterlimit="2"
       transform="matrix(7.55162,0,0,7.55162,0,111.755)"
       id="g68"
       style="fill:#000000;fill-opacity:1;stroke:#000000;stroke-width:1;stroke-linecap:square;stroke-linejoin:miter;stroke-miterlimit:2;stroke-opacity:1" />
    <g
       stroke-miterlimit="2"
       transform="matrix(7.55162,0,0,7.55162,0,111.755)"
       id="g70"
       style="fill:#000000;fill-opacity:1;stroke:#000000;stroke-width:1;stroke-linecap:square;stroke-linejoin:miter;stroke-miterlimit:2;stroke-opacity:1" />
    <g
       stroke-miterlimit="2"
       transform="matrix(7.55162,0,0,7.55162,0,111.755)"
       id="g72"
       style="fill:#000000;fill-opacity:1;stroke:#000000;stroke-width:1;stroke-linecap:square;stroke-linejoin:miter;stroke-miterlimit:2;stroke-opacity:1" />
    <g
       stroke-miterlimit="2"
       id="g74"
       style="fill:#000000;fill-opacity:1;stroke:#000000;stroke-width:1;stroke-linecap:square;stroke-linejoin:miter;stroke-miterlimit:2;stroke-opacity:1" />
    <g
       stroke-miterlimit="2"
       id="g76"
       style="fill:#000000;fill-opacity:1;stroke:#000000;stroke-width:1;stroke-linecap:square;stroke-linejoin:miter;stroke-miterlimit:2;stroke-opacity:1" />
    <g
       stroke-miterlimit="2"
       id="g78"
       style="fill:#000000;fill-opacity:1;stroke:#000000;stroke-width:1;stroke-linecap:square;stroke-linejoin:miter;stroke-miterlimit:2;stroke-opacity:1" />
    <g
       stroke-miterlimit="2"
       id="g80"
       style="fill:#000000;fill-opacity:1;stroke:#000000;stroke-width:1;stroke-linecap:square;stroke-linejoin:miter;stroke-miterlimit:2;stroke-opacity:1" />
    <g
       stroke-miterlimit="2"
       transform="matrix(7.55162,0,0,7.55162,0,111.755)"
       id="g82"
       style="fill:#000000;fill-opacity:1;stroke:#000000;stroke-width:1;stroke-linecap:square;stroke-linejoin:miter;stroke-miterlimit:2;stroke-opacity:1" />
    <g
       stroke-miterlimit="2"
       transform="matrix(7.55162,0,0,7.55162,0,111.755)"
       id="g84"
       style="fill:#000000;fill-opacity:1;stroke:#000000;stroke-width:1;stroke-linecap:square;stroke-linejoin:miter;stroke-miterlimit:2;stroke-opacity:1" />
    <g
       stroke-miterlimit="2"
       transform="matrix(7.55162,0,0,7.55162,0,111.755)"
       id="g86"
       style="fill:#000000;fill-opacity:1;stroke:#000000;stroke-width:1;stroke-linecap:square;stroke-linejoin:miter;stroke-miterlimit:2;stroke-opacity:1" />
    <g
       stroke-miterlimit="2"
       transform="matrix(7.55162,0,0,7.55162,0,111.755)"
       id="g88"
       style="fill:#000000;fill-opacity:1;stroke:#000000;stroke-width:1;stroke-linecap:square;stroke-linejoin:miter;stroke-miterlimit:2;stroke-opacity:1" />
    <g
       stroke-miterlimit="2"
       id="g90"
       style="fill:#000000;fill-opacity:1;stroke:#000000;stroke-width:1;stroke-linecap:square;stroke-linejoin:miter;stroke-miterlimit:2;stroke-opacity:1" />
    <g
       stroke-miterlimit="2"
       id="g92"
       style="fill:#000000;fill-opacity:1;stroke:#000000;stroke-width:1;stroke-linecap:square;stroke-linejoin:miter;stroke-miterlimit:2;stroke-opacity:1" />
    <g
       stroke-miterlimit="2"
       id="g94"
       style="fill:#000000;fill-opacity:1;stroke:#000000;stroke-width:1;stroke-linecap:square;stroke-linejoin:miter;stroke-miterlimit:2;stroke-opacity:1" />
    <g
       stroke-miterlimit="2"
       id="g96"
       style="fill:#000000;fill-opacity:1;stroke:#000000;stroke-width:1;stroke-linecap:square;stroke-linejoin:miter;stroke-miterlimit:2;stroke-opacity:1" />
    <g
       stroke-miterlimit="2"
       id="g98"
       style="fill:#000000;fill-opacity:1;stroke:#000000;stroke-width:1;stroke-linecap:square;stroke-linejoin:miter;stroke-miterlimit:2;stroke-opacity:1" />
    <g
       stroke-miterlimit="2"
       id="g100"
       style="fill:#000000;fill-opacity:1;stroke:#000000;stroke-width:1;stroke-linecap:square;stroke-linejoin:miter;stroke-miterlimit:2;stroke-opacity:1" />
  </g>
</svg>
