<?xml version="1.0" standalone="no"?>
<!DOCTYPE svg PUBLIC "-//W3C//DTD SVG 20010904//EN"
 "http://www.w3.org/TR/2001/REC-SVG-20010904/DTD/svg10.dtd">
<svg version="1.0" xmlns="http://www.w3.org/2000/svg"
 width="1024.000000pt" height="1024.000000pt" viewBox="0 0 1024.000000 1024.000000"
 preserveAspectRatio="xMidYMid meet">

<g transform="translate(0.000000,1024.000000) scale(0.100000,-0.100000)"
fill="#000000" stroke="none">
<path d="M0 5120 l0 -5120 5120 0 5120 0 0 5120 0 5120 -5120 0 -5120 0 0
-5120z m3842 1693 c30 -27 24 -77 -13 -106 l-32 -25 -28 33 c-32 36 -37 75
-13 99 20 21 63 20 86 -1z m2596 -38 c-3 -3 -9 2 -12 12 -6 14 -5 15 5 6 7 -7
10 -15 7 -18z m-2378 -15 c0 -5 -5 -10 -11 -10 -5 0 -7 5 -4 10 3 6 8 10 11
10 2 0 4 -4 4 -10z m2719 -72 c14 -24 14 -30 -1 -61 -12 -26 -24 -36 -47 -39
-17 -3 -31 -3 -31 -2 0 1 -3 10 -7 20 -5 14 -2 16 20 10 45 -11 74 36 41 68
-31 32 -68 16 -77 -34 -4 -22 -4 -21 -6 7 -1 41 23 65 62 61 22 -2 36 -11 46
-30z m-2621 -206 c452 -4 446 -3 657 -140 55 -36 116 -79 135 -95 44 -38 152
-158 147 -163 -2 -3 -36 29 -76 69 -43 45 -122 108 -199 159 -156 105 -168
112 -264 133 -107 23 -653 19 -708 -7 -33 -15 -17 -16 300 -17 375 -2 440 -8
520 -53 106 -59 258 -174 330 -249 152 -156 159 -166 150 -202 -4 -19 -10 -39
-14 -45 -9 -14 13 -20 52 -14 31 4 33 3 30 -19 -2 -19 -10 -25 -35 -27 -43 -4
-86 36 -77 72 10 42 -38 117 -128 197 -119 107 -173 150 -260 207 -130 84
-145 87 -503 87 -282 0 -313 -2 -338 -18 -15 -10 -33 -15 -40 -11 -9 5 -9 4
-1 -5 7 -8 18 -9 35 -3 40 15 615 -3 670 -21 102 -33 181 -82 350 -213 58 -45
179 -172 179 -187 0 -11 -8 -17 -25 -17 -14 0 -25 4 -25 9 0 15 -62 111 -71
111 -5 0 -35 25 -67 55 -32 30 -93 79 -135 109 -167 120 -209 130 -537 123
-235 -5 -306 -14 -353 -44 -7 -4 -15 -8 -19 -8 -8 0 -214 -154 -288 -215 -132
-108 -152 -148 -158 -312 l-4 -117 31 -47 c17 -26 29 -55 26 -64 -14 -45 136
-192 323 -316 111 -74 146 -79 472 -63 135 7 276 9 313 5 61 -7 78 -14 152
-64 82 -57 138 -105 205 -177 41 -45 21 -36 -33 15 -66 60 -173 137 -234 166
l-58 29 -368 -3 c-431 -4 -382 -15 -577 131 -126 95 -170 140 -208 212 -11 22
-29 45 -40 52 -23 14 -36 113 -36 279 0 100 3 116 27 166 27 55 140 173 231
241 23 16 32 27 21 23 -11 -4 -31 -10 -44 -12 -48 -9 -160 -100 -220 -178 -23
-30 -54 -85 -69 -123 -24 -62 -26 -81 -26 -213 -1 -158 11 -213 63 -298 24
-40 158 -152 181 -152 6 0 21 -10 34 -22 72 -72 197 -144 274 -158 41 -7 179
-10 382 -9 l319 2 83 -39 c103 -48 110 -53 235 -176 111 -109 133 -138 158
-211 16 -47 16 -50 -14 -145 -66 -213 -184 -333 -404 -414 l-82 -29 -252 0
c-262 1 -282 4 -344 47 -34 24 -290 295 -297 315 -2 6 70 -64 160 -154 123
-124 173 -167 203 -177 52 -17 459 -6 557 15 82 17 220 83 276 131 47 40 122
149 148 214 9 25 21 50 25 55 4 6 9 39 10 75 4 99 -18 137 -157 274 -138 135
-213 180 -299 180 -31 0 -55 5 -65 14 -12 13 -52 14 -270 8 -259 -7 -379 1
-446 29 -18 7 -61 32 -96 54 -34 23 -74 45 -88 48 -14 3 -46 25 -72 49 -26 24
-53 44 -60 44 -21 0 -108 109 -136 170 -13 30 -30 64 -36 75 -7 13 -11 91 -12
212 -1 175 1 195 18 210 10 9 18 23 18 32 0 40 160 263 225 315 l37 28 -49 51
-48 50 55 -41 54 -41 52 47 c28 26 62 57 75 68 75 67 99 102 101 151 2 40 3
37 5 -17 l4 -65 357 -3z m1079 32 l28 -27 245 8 c318 11 313 11 605 -4 191 -9
253 -15 266 -26 8 -8 19 -15 22 -15 4 0 24 -11 45 -24 20 -12 41 -24 45 -24 4
-1 62 -45 129 -99 113 -91 247 -229 286 -295 9 -15 24 -30 33 -33 16 -5 17
-21 12 -173 -4 -118 -2 -179 6 -204 11 -33 10 -43 -16 -97 -26 -56 -52 -85
-39 -43 28 86 35 414 11 446 -8 11 -15 29 -15 40 0 52 -141 216 -297 346 -114
95 -178 133 -258 152 -85 21 -1103 20 -1128 -1 -39 -32 -19 -34 261 -25 321
10 291 10 621 -1 l255 -8 72 -51 c171 -120 318 -260 388 -370 l34 -53 -9 -189
c-8 -181 -15 -242 -35 -276 -15 -27 -237 -229 -269 -245 -16 -8 -39 -23 -50
-33 -19 -16 -46 -16 -390 -8 -236 6 -493 5 -710 -1 -316 -10 -586 -8 -606 5
-26 16 11 19 208 16 190 -3 657 7 1298 27 183 6 192 7 235 33 80 48 197 163
216 214 11 29 22 43 31 40 7 -3 21 7 30 21 15 22 19 55 22 176 3 133 1 150
-14 161 -14 10 -17 21 -12 49 5 30 0 44 -25 79 -63 88 -125 154 -233 245 -179
153 -95 139 -760 134 -317 -2 -571 -7 -573 -12 -7 -18 -22 3 -22 31 0 22 -5
29 -22 32 -34 5 -36 51 -4 83 32 32 48 32 83 -1z m1378 -4 c-3 -5 -12 -10 -18
-10 -7 0 -6 4 3 10 19 12 23 12 15 0z m-51 -45 c-4 -9 -16 -21 -28 -27 -19
-10 -19 -9 3 16 28 30 33 32 25 11z m-3449 -38 c-20 -11 -29 -3 -21 19 5 13 9
14 22 3 14 -11 14 -13 -1 -22z m2095 -94 c0 -10 -20 -40 -20 -31 0 3 -3 13 -6
22 -4 11 -1 16 10 16 9 0 16 -3 16 -7z m140 -9 c0 -2 -28 -4 -62 -3 -40 1 -54
3 -39 8 23 6 101 3 101 -5z m928 1 c82 -7 97 -14 185 -79 67 -50 248 -233 271
-274 5 -9 -15 10 -45 43 -82 91 -108 116 -179 174 -36 29 -73 59 -82 66 -61
50 -60 50 -448 52 -357 1 -465 5 -524 19 -22 5 -27 4 -21 -6 6 -9 4 -11 -5 -5
-7 5 -27 11 -44 15 -37 7 803 3 892 -5z m-3214 -19 c9 -13 7 -20 -9 -32 -18
-13 -21 -13 -32 2 -9 12 -9 22 -2 36 12 22 28 20 43 -6z m2161 -98 c-9 -23
-35 -31 -41 -13 -4 8 -3 27 1 42 6 26 6 26 26 6 12 -11 17 -26 14 -35z m820
41 c272 -1 281 -2 326 -24 78 -40 210 -158 312 -280 40 -49 48 -95 41 -260 -6
-131 -9 -155 -29 -190 -23 -41 -139 -158 -186 -188 -68 -44 -50 -44 -1299 -40
-1135 3 -1270 6 -1270 21 0 4 548 7 1218 7 1117 1 1222 2 1273 18 47 14 72 32
159 115 l103 98 9 129 c13 181 7 219 -46 291 -58 79 -116 137 -209 208 -97 74
-100 74 -427 75 -209 1 -249 -1 -268 -15 -19 -13 -28 -14 -55 -3 -20 7 -112
14 -244 17 -117 2 -213 8 -213 13 0 8 402 18 485 12 22 -2 166 -4 320 -4z
m-1671 -20 c6 -5 -59 -9 -165 -9 -135 0 -180 -3 -203 -15 -15 -8 -42 -15 -60
-15 -94 -1 -428 -253 -480 -363 -9 -21 -21 -75 -26 -120 l-8 -82 4 95 c2 52 3
107 4 122 0 28 24 61 99 141 60 63 137 122 242 184 130 77 139 78 376 75 115
-2 212 -8 217 -13z m101 -12 c137 -26 280 -113 429 -258 38 -38 75 -70 83 -73
18 -7 16 -23 -3 -30 -21 -8 -35 1 -28 18 5 14 -158 172 -169 165 -4 -2 -13 5
-21 17 -20 28 -116 85 -200 118 -50 20 -81 26 -119 24 -42 -2 -52 0 -55 15 -4
20 -5 20 83 4z m685 -152 c0 -30 -25 -34 -40 -6 -7 14 -6 21 3 24 26 11 37 6
37 -18z m-430 -4 c0 -25 -10 -51 -20 -51 -14 0 -20 31 -10 51 14 24 30 25 30
0z m698 -115 c-2 -15 -12 -22 -31 -24 -35 -4 -45 19 -22 54 16 25 17 25 36 8
11 -10 19 -27 17 -38z m-1768 4 c-65 -55 -90 -85 -90 -107 0 -12 -10 -29 -22
-38 -21 -14 -23 -25 -26 -128 -3 -65 1 -130 7 -155 16 -57 98 -136 244 -235
112 -76 113 -76 177 -75 337 3 684 -2 721 -12 23 -7 59 -23 78 -36 20 -13 44
-24 54 -24 12 0 17 -5 14 -14 -4 -9 39 -60 109 -132 160 -166 188 -205 204
-284 22 -111 23 -150 5 -221 -45 -188 -228 -384 -470 -507 -89 -44 -151 -52
-420 -52 -302 0 -321 4 -403 92 -31 34 -103 109 -158 168 -182 189 -240 257
-230 268 4 3 19 -9 34 -28 48 -63 114 -130 128 -130 12 0 97 -90 226 -240 85
-99 95 -102 318 -97 362 9 447 27 632 138 137 82 241 201 300 341 28 66 30 79
26 168 -3 79 -8 105 -28 144 -35 65 -327 358 -388 388 -47 23 -51 23 -422 24
-206 0 -388 3 -403 7 -49 13 -197 118 -277 196 -92 91 -103 120 -102 269 1
122 17 204 46 231 27 26 139 110 146 110 3 0 -11 -13 -30 -29z m3755 -30 c9
-14 -4 -50 -18 -50 -7 0 -20 7 -30 14 -16 13 -16 15 -2 30 19 18 41 21 50 6z
m-2606 -36 c2 -2 1 -11 -3 -20 -6 -15 -8 -15 -26 1 -27 24 -25 38 3 29 12 -3
24 -8 26 -10z m241 -14 c0 -5 -7 -7 -15 -4 -8 4 -15 8 -15 10 0 2 7 4 15 4 8
0 15 -4 15 -10z m256 -25 c-3 -8 0 -15 6 -15 8 0 6 -6 -4 -16 -14 -14 -18 -14
-49 1 l-33 17 30 13 c40 18 57 18 50 0z m-2275 -291 c18 -16 17 -17 -5 -35
-31 -25 -41 -24 -54 5 -19 41 23 62 59 30z m4419 -73 c0 -6 -4 -13 -10 -16 -5
-3 -10 1 -10 9 0 9 5 16 10 16 6 0 10 -4 10 -9z m-553 -83 c-8 -13 -56 -66
-106 -120 -50 -53 -91 -98 -91 -101 0 -11 133 -133 163 -150 42 -24 87 -90 87
-126 0 -16 7 -48 15 -71 8 -24 13 -45 11 -47 -3 -3 -13 18 -23 46 -10 28 -21
51 -25 51 -3 0 -14 23 -23 50 -17 53 -20 55 -202 187 -18 13 -33 29 -33 36 0
7 23 37 51 67 43 47 108 122 166 193 20 26 29 13 10 -15z m-169 -75 c-16 -25
-128 -128 -128 -119 0 6 131 136 138 136 1 0 -3 -8 -10 -17z m-124 -205 c117
-69 250 -159 266 -182 8 -11 24 -52 36 -91 12 -38 42 -119 68 -180 59 -141 60
-182 10 -279 -61 -120 -134 -218 -242 -324 -85 -83 -120 -110 -189 -144 l-85
-42 -156 -2 -157 -2 137 8 c80 4 157 15 187 25 68 22 152 86 226 170 33 37 65
73 70 79 26 28 163 212 193 258 53 86 49 108 -64 368 -44 98 -64 133 -97 163
-69 62 -229 174 -280 196 -26 11 -47 23 -47 27 0 13 56 -9 124 -48z m-128 -3
c38 -16 259 -167 311 -212 36 -32 52 -61 94 -175 65 -174 72 -228 36 -295 -48
-91 -146 -226 -217 -298 -98 -102 -145 -139 -216 -172 l-59 -28 -517 0 c-339
0 -518 3 -518 10 0 7 174 10 503 10 402 0 510 3 542 14 71 25 178 107 227 174
25 35 20 34 -22 -3 -19 -17 -71 -50 -116 -74 l-82 -44 -143 -2 c-79 -2 -316
-2 -526 -2 l-383 2 0 21 c0 20 4 21 38 14 20 -3 186 -7 367 -8 246 -2 335 1
352 10 17 10 28 10 60 -3 45 -19 174 -14 243 11 100 35 261 186 342 319 33 55
35 63 21 78 -11 13 -12 21 -3 37 6 12 15 21 21 21 6 0 7 14 3 35 -5 28 -3 35
10 35 13 0 15 -10 12 -57 -3 -58 -24 -108 -89 -210 -48 -75 -26 -103 28 -35
107 133 125 165 125 220 0 47 -92 327 -117 354 -29 33 -238 177 -310 215 l-68
35 -490 -6 c-581 -7 -971 -18 -980 -28 -7 -7 35 -56 165 -191 71 -74 77 -83
103 -170 34 -111 33 -206 -3 -302 -12 -33 -22 -74 -21 -92 1 -21 -5 -36 -19
-46 -11 -7 -36 -36 -57 -63 -103 -136 -201 -216 -358 -289 -127 -60 -182 -75
-275 -75 -133 0 -334 13 -314 20 11 4 87 11 169 15 248 11 276 18 495 123 64
31 104 59 161 116 80 77 139 154 139 180 0 8 5 18 10 21 12 7 42 71 64 138 30
88 12 241 -34 292 -9 11 -20 31 -23 45 -4 14 -67 88 -140 165 l-134 140 380 7
c208 4 382 9 385 12 3 4 182 6 399 6 324 0 400 -3 429 -15z m-3260 -38 c2 -7
1 -23 -4 -36 -8 -22 -8 -22 -32 -3 -15 12 -21 25 -17 35 8 20 45 23 53 4z
m4414 -2 c0 -8 -7 -15 -15 -15 -16 0 -20 12 -8 23 11 12 23 8 23 -8z m-1146
-70 c131 -73 311 -201 318 -226 8 -30 29 -116 36 -148 3 -15 1 -22 -5 -18 -6
4 -14 23 -17 43 -4 19 -20 49 -37 66 -16 17 -29 41 -29 53 0 28 -35 60 -149
135 -128 84 -152 92 -296 90 -66 -1 -205 3 -310 9 -104 5 -359 7 -565 4 -206
-2 -371 -1 -367 4 8 7 360 14 1135 21 l224 2 62 -35z m-1495 -201 c10 -9 10
-13 0 -19 -8 -5 -10 -4 -5 3 4 7 3 12 -3 12 -6 0 -15 10 -21 23 -10 19 -9 20
2 7 8 -8 20 -20 27 -26z m2011 -55 c0 -6 -4 -7 -10 -4 -5 3 -10 11 -10 16 0 6
5 7 10 4 6 -3 10 -11 10 -16z m74 -150 c5 -4 5 -12 1 -19 -5 -8 -18 12 -36 55
-36 84 -37 98 -1 25 15 -30 31 -58 36 -61z m384 3 c2 -7 -6 -12 -17 -12 -21 0
-27 11 -14 24 9 9 26 2 31 -12z m-1626 -94 c-6 -6 -16 -7 -22 -3 -9 6 -9 9 1
16 17 10 34 0 21 -13z m-1274 -40 c-2 -17 -10 -23 -28 -23 -18 0 -26 6 -28 23
-3 19 1 22 28 22 27 0 31 -3 28 -22z m-1149 -2 c9 -11 6 -18 -15 -33 l-27 -20
27 -50 c39 -72 263 -349 380 -470 32 -34 45 -53 34 -53 -8 0 -42 32 -74 71
-69 83 -72 86 -144 170 -30 34 -75 86 -99 113 -24 28 -72 79 -107 112 -35 34
-64 66 -64 73 0 15 -6 14 -38 -6 l-27 -17 23 25 c12 14 22 30 22 36 0 6 9 22
21 37 23 29 69 35 88 12z m219 -10 l22 -24 -30 -11 c-39 -13 -60 -5 -60 23 0
43 33 49 68 12z m-188 -44 c0 -4 43 -54 95 -111 52 -58 95 -109 95 -115 0 -6
-7 -2 -15 8 -8 11 -15 17 -15 13 0 -9 -108 105 -150 158 -31 39 -37 55 -20 55
6 0 10 -4 10 -8z m2060 -142 c0 -5 -7 -10 -15 -10 -8 0 -15 5 -15 10 0 6 7 10
15 10 8 0 15 -4 15 -10z m1440 -98 c-65 -126 -198 -246 -372 -338 l-73 -38
-260 -2 -260 -2 225 8 c243 9 303 19 392 66 74 40 303 272 361 367 37 59 28
16 -13 -61z m-3800 48 c0 -5 -4 -10 -10 -10 -5 0 -10 5 -10 10 0 6 5 10 10 10
6 0 10 -4 10 -10z m1900 -180 c0 -5 -5 -10 -11 -10 -5 0 -7 5 -4 10 3 6 8 10
11 10 2 0 4 -4 4 -10z m-121 -98 c-115 -87 -236 -146 -330 -162 l-69 -12 -2
-61 -2 -62 -3 61 -4 61 -127 8 c-242 14 -242 20 -2 32 223 10 226 11 322 47
53 20 125 52 160 71 70 37 93 44 57 17z m268 -48 c-3 -3 -12 -4 -19 -1 -8 3
-5 6 6 6 11 1 17 -2 13 -5z m-1145 -94 c50 0 78 -4 78 -11 0 -22 -279 14 -287
38 -2 6 21 4 64 -8 39 -11 100 -19 145 -19z m1374 -12 c-18 -10 -39 -2 -31 12
3 4 15 6 26 3 19 -5 19 -7 5 -15z m-238 -148 c-2 -19 -9 -25 -28 -25 -32 0
-40 39 -13 65 17 17 19 17 31 2 7 -10 12 -28 10 -42z m1723 -39 c23 -19 23
-21 9 -48 -9 -15 -25 -29 -35 -30 -16 -2 -15 -1 3 7 35 15 27 64 -10 68 -16 2
-28 8 -28 13 0 16 37 10 61 -10z m-2306 -81 c0 -27 -6 -38 -27 -50 -25 -13
-31 -13 -55 0 -29 16 -42 55 -25 72 6 6 11 -2 15 -21 7 -34 40 -50 63 -30 11
9 14 22 10 42 -4 20 -2 27 7 24 6 -2 12 -19 12 -37z m-867 -59 c-1 -15 2 -33
6 -40 4 -6 5 -11 2 -11 -12 0 -27 42 -21 60 9 28 14 25 13 -9z m1892 -151 c0
-5 -2 -10 -4 -10 -3 0 -8 5 -11 10 -3 6 -1 10 4 10 6 0 11 -4 11 -10z m-670
-180 c0 -11 -2 -20 -4 -20 -2 0 -6 9 -9 20 -3 11 -1 20 4 20 5 0 9 -9 9 -20z"/>
<path d="M3773 6784 c-9 -24 18 -44 45 -33 19 7 21 12 12 29 -13 24 -48 27
-57 4z"/>
<path d="M3585 6276 c-59 -45 -140 -121 -95 -90 29 20 170 137 170 140 0 7 -5
4 -75 -50z"/>
<path d="M3660 6250 c-9 -6 -10 -10 -3 -10 6 0 15 5 18 10 8 12 4 12 -15 0z"/>
<path d="M6706 4214 c-18 -26 -18 -26 2 -15 11 6 22 17 26 26 9 23 -7 17 -28
-11z"/>
</g>
</svg>
