<?xml version="1.0" encoding="UTF-8"?>
<svg id="Layer_1" data-name="Layer 1" xmlns="http://www.w3.org/2000/svg" viewBox="0 0 1000 1000">
  <defs>
    <style>
      .cls-1 {
        fill: #a82216;
        fill-rule: evenodd;
      }
    </style>
  </defs>
  <path class="cls-1" d="m495.33,530.46c-4.45-7.14-8.94-14.25-13.46-21.35-4.43-6.95-8.92-13.87-13.46-20.75v42.09h-12.61v-60.93h13.29c4.59,6.85,9.12,13.74,13.59,20.66,4.5,6.97,8.95,13.97,13.34,21v-41.67h12.61v60.93h-13.29Zm25.37-60.93h41.92v10.91h-28.8v13.21h25.56v10.91h-25.56v15h30.42v10.91h-43.54v-60.93h0Zm101.97,60.93c-1.93-6.86-3.82-13.74-5.67-20.62-1.84-6.86-3.65-13.74-5.41-20.62-1.71,6.89-3.47,13.76-5.28,20.62-1.82,6.89-3.7,13.76-5.62,20.62h-13.89c-2.92-10.02-5.7-20.07-8.35-30.16-2.67-10.17-5.2-20.42-7.58-30.76h14.32c1.42,7.91,2.93,15.81,4.52,23.69,1.56,7.78,3.24,15.53,5.03,23.26,3.79-14.75,7.4-29.55,10.82-44.4h12.78c3.4,14.53,6.98,29.02,10.74,43.46,1.72-7.6,3.37-15.21,4.94-22.84,1.59-7.7,3.06-15.43,4.43-23.18h14.06c-2.37,10.29-4.9,20.55-7.58,30.76-2.65,10.09-5.43,20.15-8.35,30.16h-13.89,0Zm54.66,1.28c-3.35,0-6.66-.37-9.93-1.11-3.28-.74-6.45-1.92-9.42-3.49v-11.76c6.08,3.69,12.53,5.54,19.34,5.54,3.86,0,6.8-.65,8.82-1.96,2.02-1.31,3.03-3.12,3.03-5.45,0-1.76-.5-3.14-1.49-4.13-.99-.99-2.32-1.79-3.96-2.39-1.65-.6-3.49-1.15-5.54-1.66-3.35-.79-6.31-1.7-8.86-2.73-2.56-1.02-4.72-2.23-6.48-3.62-1.76-1.39-3.1-3.07-4-5.03-.91-1.96-1.36-4.3-1.36-7.03,0-3.86.98-7.19,2.94-9.97,1.96-2.78,4.73-4.93,8.31-6.43,3.58-1.5,7.84-2.26,12.78-2.26,3.24,0,6.42.37,9.54,1.11,3.12.74,5.94,1.73,8.44,2.98v11.59c-2.5-1.53-5.33-2.73-8.48-3.58-3.15-.85-6.32-1.28-9.5-1.28-3.47,0-6.15.6-8.05,1.79-1.9,1.19-2.85,2.9-2.85,5.11,0,1.59.45,2.85,1.36,3.79.91.94,2.2,1.7,3.88,2.3,1.67.6,3.65,1.18,5.92,1.75,2.9.74,5.59,1.55,8.09,2.43,2.5.88,4.7,2,6.6,3.37,1.9,1.36,3.38,3.1,4.43,5.2,1.05,2.1,1.58,4.69,1.58,7.75,0,4.03-.99,7.49-2.98,10.35-1.99,2.87-4.86,5.06-8.61,6.56-3.75,1.51-8.27,2.26-13.55,2.26h0Zm-536.33-72.36v81.24h81.24v-81.24h-81.24Zm56.65,57.33c-1.39,1.96-3.37,3.47-5.93,4.54-2.57,1.07-5.65,1.6-9.26,1.6h-18.21v-45.7h17.15c5.05,0,8.97,1.01,11.74,3.04,2.77,2.02,4.16,4.93,4.16,8.72,0,2.17-.5,4.06-1.49,5.66-.99,1.6-2.46,2.87-4.41,3.8,2.69.89,4.75,2.31,6.18,4.25,1.43,1.94,2.14,4.29,2.14,7.06s-.69,5.07-2.08,7.03h0Zm-11.62-22.34c1.26-1.04,1.9-2.5,1.9-4.38,0-3.62-2.47-5.43-7.39-5.43h-7.02v11.38h7.02c2.4,0,4.23-.52,5.5-1.57h0Zm-4.32,8.72h-8.2v12.33h8.08c2.77,0,4.91-.52,6.4-1.57,1.49-1.04,2.24-2.55,2.24-4.51,0-4.18-2.84-6.26-8.51-6.26Zm60.83-43.72v81.24h81.24v-81.24h-81.24Zm56.65,57.33c-1.39,1.96-3.37,3.47-5.93,4.54-2.57,1.07-5.65,1.6-9.26,1.6h-18.2v-45.7h17.15c5.05,0,8.97,1.01,11.74,3.04,2.77,2.02,4.16,4.93,4.16,8.72,0,2.17-.5,4.06-1.49,5.66-.99,1.6-2.46,2.87-4.41,3.8,2.69.89,4.75,2.31,6.18,4.25,1.43,1.94,2.14,4.29,2.14,7.06s-.69,5.07-2.08,7.03h0Zm-11.62-22.34c1.26-1.04,1.89-2.5,1.89-4.38,0-3.62-2.47-5.43-7.39-5.43h-7.02v11.38h7.02c2.4,0,4.23-.52,5.5-1.57Zm-4.32,8.72h-8.2v12.33h8.08c2.77,0,4.91-.52,6.4-1.57,1.49-1.04,2.24-2.54,2.24-4.51,0-4.18-2.84-6.26-8.51-6.26h0Zm60.83,37.52h81.24v-81.24h-81.24v81.24h0Zm58.34-20.67c-1.89,1.04-4.09,1.87-6.58,2.47-2.49.61-5.12.91-7.87.91-3.66,0-6.94-.53-9.87-1.6-2.92-1.06-5.4-2.6-7.42-4.6-2.02-2-3.57-4.46-4.64-7.36-1.08-2.9-1.61-6.17-1.61-9.8s.56-6.75,1.68-9.62c1.12-2.86,2.73-5.31,4.84-7.36,2.11-2.05,4.63-3.61,7.58-4.7,2.95-1.09,6.25-1.63,9.9-1.63,2.54,0,4.93.26,7.19.78,2.26.52,4.35,1.28,6.29,2.29v8.89c-1.77-1.17-3.7-2.07-5.74-2.66-2.06-.61-4.24-.91-6.51-.91-3.14,0-5.82.59-8.03,1.75-2.22,1.17-3.91,2.86-5.1,5.07-1.18,2.21-1.77,4.91-1.77,8.08s.57,5.88,1.71,8.11c1.14,2.23,2.79,3.94,4.97,5.11,2.17,1.17,4.81,1.75,7.9,1.75,4.73,0,9.09-1.23,13.09-3.7v8.71h0Zm360.72,13.45l.14.18-.15.17c-.78.92-1.6,1.79-2.47,2.62-.82.77-1.59,1.49-2.31,2.17l-.18.17-.19-.17c-.81-.71-1.6-1.45-2.36-2.21-.85-.85-1.66-1.73-2.43-2.65l-.15-.18.15-.18c.74-.88,1.52-1.73,2.32-2.54.79-.79,1.62-1.54,2.47-2.25l.18-.15.18.15c.87.73,1.7,1.49,2.51,2.29.81.82,1.58,1.68,2.29,2.58h0Zm-10.97,0l.14.18-.15.17c-.78.92-1.6,1.79-2.47,2.62-.82.77-1.59,1.49-2.31,2.17l-.18.17-.19-.17c-.81-.71-1.6-1.45-2.36-2.21-.85-.85-1.66-1.73-2.43-2.65l-.15-.18.15-.18c.74-.88,1.52-1.73,2.32-2.54.79-.79,1.62-1.54,2.47-2.25l.18-.15.18.15c.87.73,1.7,1.49,2.51,2.29.81.82,1.58,1.68,2.29,2.58h0Zm35.79-15.15l.14.18-.15.17c-.78.92-1.6,1.79-2.47,2.62-.82.77-1.59,1.49-2.31,2.17l-.18.17-.19-.17c-.81-.71-1.6-1.45-2.36-2.21-.85-.85-1.66-1.73-2.43-2.65l-.15-.18.15-.18c.74-.88,1.52-1.73,2.32-2.54.79-.79,1.62-1.54,2.47-2.25l.18-.15.18.15c.87.73,1.7,1.49,2.51,2.29.81.82,1.58,1.68,2.29,2.58h0Zm3.85-33.2c.46,3.27.69,6.51.69,9.64,0,2.62-.37,4.83-1.1,6.57-.74,1.75-1.84,3.14-3.27,4.13-1.42.98-3.15,1.69-5.15,2.1-1.96.41-4.21.61-6.69.62h0s-.14,0-.14,0c-1.11,0-2.22-.04-3.33-.12.14.7.21,1.35.21,1.93,0,1.91-.47,3.76-1.4,5.51-.93,1.73-2.31,3.3-4.12,4.64-1.8,1.34-4.01,2.41-6.58,3.18-2.57.77-5.53,1.17-8.81,1.17-4.49,0-8.19-.69-10.98-2.05-2.81-1.37-4.9-3.34-6.22-5.86-1.31-2.51-1.98-5.48-1.98-8.82,0-1.5.15-3.08.44-4.7.29-1.61.68-3.2,1.16-4.76.48-1.54,1-2.94,1.53-4.14l.09-.21,4.32,1.06-.07.27c-.34,1.31-.64,2.63-.9,3.95-.25,1.28-.45,2.57-.57,3.87-.12,1.23-.18,2.34-.18,3.29,0,3.65,1.11,6.38,3.29,8.12,2.2,1.76,5.86,2.65,10.87,2.65,3.08,0,5.79-.34,8.04-1,2.24-.66,3.97-1.53,5.16-2.58,1.16-1.02,1.75-2.11,1.75-3.22,0-.89-.39-1.65-1.2-2.35-.83-.71-2.29-1.34-4.36-1.85l-3.46-.87,2.12-6.45.26.07c2.62.71,5.2,1.22,7.68,1.51,2.48.29,4.95.43,7.33.43,2.23,0,4.11-.14,5.58-.43,1.46-.28,2.62-.66,3.45-1.12.53-.31.91-.64,1.13-.99.21-.34.32-.94.32-1.8,0-.79-.1-1.9-.29-3.28-.19-1.38-.46-2.94-.79-4.64-.34-1.73-.72-3.46-1.12-5.19-.38-1.63-.8-3.25-1.26-4.86l-.07-.24,6.65-2.82.08.3c.82,2.93,1.46,6.07,1.92,9.34h0Zm67.18,9.53l-.55,7.08-.17.06c-2.31.87-4.88,1.7-7.64,2.46-2.88.8-5.79,1.47-8.72,2.03-3.01.57-6.03,1.03-9.08,1.37-2.97.33-5.88.5-8.65.51h0s-.14,0-.14,0h0c-1.49,0-2.93-.22-4.3-.62-1.22-.36-2.32-.91-3.26-1.64-.32,3.17-1.08,5.96-2.25,8.28-1.24,2.45-2.87,4.52-4.83,6.15-1.97,1.63-4.22,2.89-6.69,3.76-2.46.87-5.08,1.46-7.78,1.75l-.23.02-2.12-6.66.33-.04c3.89-.52,7.25-1.53,9.97-3,2.71-1.46,4.81-3.4,6.24-5.78,1.42-2.36,2.15-5.24,2.16-8.56-.86-1.73-1.68-3.78-2.44-6.11-.8-2.45-1.57-4.9-2.31-7.37l-.07-.22,5.48-2.94.09.33c.91,3.2,1.78,5.85,2.59,7.87.8,2.01,1.65,3.58,2.52,4.66.85,1.06,1.84,1.8,2.94,2.18,1.12.4,2.47.6,4.02.6,1.4,0,2.97-.05,4.67-.14,1.56-.09,3.25-.23,5.03-.44-1.18-1.18-2.17-2.57-2.95-4.14-.88-1.74-1.33-3.66-1.33-5.61,0-1.95.33-3.83.99-5.58.64-1.73,1.6-3.33,2.83-4.71,1.22-1.37,2.72-2.47,4.38-3.24,1.69-.78,3.61-1.18,5.71-1.18,4.09,0,7.8,1.48,11.01,4.4l.13.12-1.44,4.96-.3-.15c-1.89-.95-3.66-1.57-5.26-1.85-1.61-.28-3.1-.43-4.42-.43-1.49,0-2.89.27-4.15.81-1.25.53-2.26,1.29-2.99,2.26-.73.96-1.1,2.14-1.1,3.51,0,1.01.27,2.03.8,3.05.53,1.02,1.28,1.94,2.21,2.73.93.79,2.06,1.44,3.35,1.94,1.28.49,2.72.74,4.27.74.62,0,1.24-.02,1.85-.07.6-.05,1.35-.18,2.23-.39.89-.22,2.07-.53,3.49-.94,1.42-.4,3.26-.97,5.47-1.69l.39-.13h0Z"/>
</svg>